# xmcd
#
# Track frame offsets: 
#        150
#        12179
#        32857
#        37558
#        60031
#        90031
#        92019
#        116067
#        135406
#        145641
#        168807
#
# Disc length: 2391 seconds
#
# Revision: 0
# Processed by: cddbd v1.5.2PL0 Copyright (c) Steve Scherf et al.
# Submitted via: ExactAudioCopy v0.99pb5
#
DISCID=6c09550b
DTITLE=Youngbloods  - Rock Festival (1970) [vinyl]  FLAC
DYEAR=1900
DGENRE=
TTITLE0=It's A Lovely Day
TTITLE1=Faster All The Time
TTITLE2=Prelude
TTITLE3=On Beautiful Lake Spenard
TTITLE4=Josiane
TTITLE5=Sea Cow Boogie
TTITLE6=Fiddler A Dram
TTITLE7=Misty Roses
TTITLE8=Interlude
TTITLE9=Peepin' 'N' Hidin'
TTITLE10=Ice Bag
EXTD=
EXTT0=
EXTT1=
EXTT2=
EXTT3=
EXTT4=
EXTT5=
EXTT6=
EXTT7=
EXTT8=
EXTT9=
EXTT10=
PLAYORDER=
